<?xml version="1.0" ?><svg viewBox="0 0 32 32" xmlns="http://www.w3.org/2000/svg"><title/><g data-name="25-Card Game" id="_25-Card_Game"><path d="M29,0V32a2,2,0,0,0,2-2V2A2,2,0,0,0,29,0Z"/><path d="M24,0H4A3,3,0,0,0,1,3V29a3,3,0,0,0,3,3H24a3,3,0,0,0,3-3V3A3,3,0,0,0,24,0Zm1,29a1,1,0,0,1-1,1H4a1,1,0,0,1-1-1V3A1,1,0,0,1,4,2H24a1,1,0,0,1,1,1Z"/><path d="M9,10h2V6A2,2,0,0,0,9,4H7A2,2,0,0,0,5,6v4H7V9H9ZM7,7V6H9V7Z"/><path d="M14.71,12.29a1,1,0,0,0-1.41,0l-5,5a1,1,0,0,0,0,1.41l5,5a1,1,0,0,0,1.41,0l5-5a1,1,0,0,0,0-1.41ZM14,21.59,10.41,18,14,14.41,17.59,18Z"/></g></svg>